<svg width="387" height="387" viewBox="0 0 387 387" fill="none" xmlns="http://www.w3.org/2000/svg">
<path d="M211.701 0.897208C105.47 -9.29559 11.0895 68.5589 0.897402 174.79C-9.29469 281.021 68.5591 375.401 174.791 385.593C281.021 395.786 375.401 317.931 385.594 211.7C395.786 105.469 317.931 11.0896 211.701 0.897208Z" fill="#EEBD2C"/>
<path d="M153.732 215.34C188.724 193.345 231.714 220.338 266.707 207.341C325.143 184.616 343.512 127.734 340.999 68.7385C309.57 31.4359 264.091 5.92368 211.7 0.897208C105.47 -9.29559 11.0894 68.5589 0.896655 174.79C-6.30611 249.864 30.4705 319.012 90.154 356.717C89.1165 301.86 104.796 245.809 153.732 215.34Z" fill="#F0C73D"/>
<path d="M164.729 177.348C186.724 176.348 191.723 151.353 206.72 138.356C208.719 135.357 213.718 134.357 217.717 133.357C240.712 130.358 265.706 144.355 283.703 131.357C314.922 109.503 319.624 71.2719 307.795 37.6065C280.598 17.5442 247.79 4.35889 211.7 0.896294C105.47 -9.29615 11.0895 68.5584 0.896668 174.789C0.562178 178.276 0.323258 181.749 0.176392 185.207C10.7901 181.093 22.7727 179.345 33.7578 177.348C77.7481 170.349 120.739 180.347 164.729 177.348Z" fill="#F2D15B"/>
<path d="M210.053 18.0589C113.301 8.77577 27.3424 79.6837 18.0593 176.436C8.7765 273.189 79.684 359.147 176.437 368.43C273.189 377.713 359.147 306.806 368.431 210.053C377.714 113.301 306.806 27.342 210.053 18.0589Z" fill="#E5A528"/>
<path d="M18.0593 176.436C12.3199 236.257 37.2443 291.943 79.9707 327.94C88.0926 279.553 112.396 231.963 163.729 222.338C206.72 215.34 254.709 244.333 288.702 207.341C304.698 191.345 309.697 170.349 304.698 147.355C299.699 124.359 294.7 102.364 300.699 81.3691C302.766 73.9858 305.778 67.2619 309.557 61.1677C282.708 37.4843 248.416 21.7401 210.053 18.0593C113.301 8.77578 27.3424 79.6837 18.0593 176.436Z" fill="#EAAB2B"/>
<path d="M18.2891 174.321C62.0871 171.516 103.919 191.333 147.733 188.345C158.73 187.345 170.728 182.347 176.726 172.349C182.725 164.351 184.725 152.353 194.722 149.354C219.717 140.356 251.71 151.353 271.706 127.359C292.57 102.865 287.096 72.6102 286.649 44.0616C264.202 29.9786 238.228 20.7622 210.054 18.0589C114.009 8.84355 28.615 78.6549 18.2891 174.321Z" fill="#EBB132"/>
<path d="M330.848 168.097C323.871 142.814 294.051 131.953 272.448 146.826L249.21 162.825L244.814 158.081L262.525 136.121C278.991 115.707 270.417 85.1493 245.736 76.279C226.356 69.3145 206.131 78.9866 198.19 96.1562C191.572 78.4346 172.138 67.259 152.286 72.7367C127.004 79.7132 116.142 109.534 131.015 131.136L147.014 154.374L143.405 158.814L121.446 141.102C101.031 124.637 70.4743 133.21 61.6044 157.891V157.892C54.6395 177.271 64.3119 197.495 81.4819 205.437C63.76 212.056 52.5848 231.49 58.062 251.341C65.0389 276.624 94.8594 287.486 116.461 272.612L139.699 256.613L180.665 228.408L180.633 293.297C180.411 299.171 184.992 304.113 190.867 304.336L194.584 304.477C200.458 304.699 205.4 300.118 205.623 294.244L205.687 228.508L245.504 260.623L267.464 278.335C287.878 294.801 318.436 286.228 327.306 261.546C334.27 242.167 324.598 221.942 307.428 214.001C325.15 207.382 336.325 187.948 330.848 168.097Z" fill="#EEBD2C"/>
<path d="M144.734 218.339C160.73 204.342 179.726 197.344 200.721 202.343C225.716 207.342 248.711 216.34 273.705 210.341C301.735 203.822 316.162 179.452 321.979 152.196C309.657 139.027 288.723 135.621 272.448 146.826L249.211 162.825L244.814 158.081L262.526 136.121C278.992 115.707 270.418 85.1493 245.736 76.279C226.357 69.3145 206.132 78.9862 198.191 96.1562C191.573 78.4346 172.138 67.259 152.287 72.7367C127.005 79.7132 116.143 109.534 131.016 131.136L147.015 154.374L143.406 158.814L121.447 141.102C101.032 124.636 70.475 133.21 61.605 157.891V157.892C54.6401 177.271 64.3126 197.495 81.4825 205.437C63.7606 212.056 52.5854 231.49 58.0623 251.341C63.8171 272.195 85.1113 283.221 104.518 278.104C108.73 254.082 127.083 235.15 144.734 218.339Z" fill="#EFC539"/>
<path d="M119.739 180.347C136.735 188.345 161.73 189.345 171.727 173.348C186.724 151.353 197.722 119.36 229.714 127.359C242.222 130.65 255.595 132.206 267.268 128.605C276.757 108.865 267.537 84.1128 245.736 76.278C226.356 69.3134 206.131 78.9852 198.19 96.1552C191.572 78.4335 172.137 67.258 152.286 72.7356C127.004 79.7121 116.142 109.533 131.015 131.135L147.014 154.372L143.405 158.813L121.446 141.101C101.031 124.635 70.474 133.209 61.6041 157.89V157.891C59.3926 164.044 58.8638 170.281 59.7145 176.185C63.9058 174.262 68.5134 173.054 72.749 172.348C88.7458 169.349 103.742 173.348 119.739 180.347Z" fill="#F1CD4E"/>
</svg>
