<?xml version='1.0' encoding='utf-8'?>
<svg xmlns="http://www.w3.org/2000/svg" version="1.1" width="600px" height="976px" viewBox="0 0 600 976"> <g id="layer1"> <g style="fill:rgb(23,70,76); fill-opacity:1.0; stroke-linejoin: miter"> <path d="M273.80472,374.81174Q194.86859,375.5373,137.1124,431.4024Q81.80935,487.73328,80.50623,568.09Q81.536476,647.3029,136.62009,704.2197Q194.1737,760.30585,273.104,761.2979Q353.17578,760.5124,410.51004,704.5851Q465.75632,647.83496,466.9919,568.6139Q465.8956,488.263,410.74988,431.771Q353.16162,375.741,274.21817,374.81235"/> </g> <g> <g style="fill:rgb(33,123,134); fill-opacity:1.0; stroke-linejoin: miter"> <path d="M273.79907,395.19348Q202.61157,396.05627,151.43637,445.90152Q101.94137,496.63702,100.88758,567.90356Q101.86948,639.20966,151.14252,689.914Q202.3357,739.967,273.45255,740.9162Q344.64166,740.1569,395.8965,690.37396Q445.46674,639.6951,446.61047,568.4285Q445.7182,497.12317,396.5206,446.3615Q345.4038,396.24612,274.29245,395.19418L273.79907,395.19348 Z"/> </g> <g style="fill:rgb(73,68,68); fill-opacity:1.0; stroke-linejoin: miter"> <path d="M228.72235,596.35895Q178.47552,634.7095,168.5361,662.60266Q162.22577,678.13245,162.10165,699.8758L162.10327,699.8758Q209.79663,740.0666,273.45255,740.9162Q318.84506,740.43207,356.13278,720.0161L356.13638,720.0161Q353.75903,701.5006,348.60638,679.6913Q341.0159,649.3326,327.35217,633.10254Q314.383,617.4575,293.38284,609.75714Q274.53253,602.2874,228.95804,596.392L228.72235,596.35895 Z"/> </g> <g style="fill:rgb(176,172,165); fill-opacity:1.0; stroke-linejoin: miter"> <path d="M298.38733,450.96545Q297.9746,450.96545,297.56046,450.97003L297.2661,450.97083Q270.64252,451.40558,242.72772,465.9995Q220.63565,478.224,208.17053,500.78308Q190.22629,536.2402,191.88806,572.3818Q193.71707,597.6306,216.24603,597.6306Q216.48178,597.6306,216.71979,597.62787Q216.84317,597.6288,216.9678,597.6288Q223.00964,597.6288,232.1192,595.48193L347.9132,585.5261Q374.3522,564.79974,379.75742,554.48517Q383.47415,548.02136,381.27185,542.2253Q380.52988,539.9973,378.44156,536.91205Q366.04395,522.19403,365.98557,520.1494Q364.84863,517.55194,364.33817,514.27344Q363.31985,496.82837,361.72028,493.1819Q359.64102,486.02954,353.41162,478.1494Q330.13593,450.96545,298.38733,450.96545 Z"/> </g> <g style="fill:rgb(255,210,150); fill-opacity:1.0; stroke-linejoin: miter"> <path d="M309.06445,476.49432Q275.07767,477.46204,265.36032,494.48767Q261.24493,502.28375,261.97104,513.6036Q262.34174,524.1498,269.22995,548.2214Q269.61905,550.7001,268.59418,551.2623Q267.1475,552.91394,254.55899,551.45795L252.90045,560.859Q238.8778,531.3406,231.78229,532.2766Q223.27606,532.9627,220.65646,548.72656Q219.20163,564.76825,229.09024,589.0463L228.55042,597.48645L236.00021,609.5264L289.9151,649.5207Q298.503,644.4139,306.93442,638.9188Q320.84198,639.2731,324.6575,633.4018Q327.2958,630.1055,330.15555,621.41284Q334.0001,619.60974,341.78763,601.74835Q349.28006,583.84186,350.90515,572.1095L351.06348,554.92694Q354.51913,523.9636,353.94543,518.935Q353.7867,505.70013,349.97946,497.0279Q341.8157,477.39032,309.33017,476.4964"/> </g> <g style="fill:rgb(176,172,165); fill-opacity:1.0; stroke-linejoin: miter"> <path d="M309.47388,521.20276Q307.13107,520.42365,303.77383,520.6798Q300.3951,520.96606,297.4416,522.185Q295.12897,523.1553,293.46692,524.80804Q291.9982,526.20593,290.20935,529.3573L315.65045,527.7056Q313.50732,522.58264,309.50726,521.21405"/> </g> <g style="fill:rgb(255,0,0); fill-opacity:0.043137256; stroke-linejoin: miter"> <path d="M307.9307,492.648Q296.62552,494.7669,291.0464,496.71344Q287.9759,497.7744,284.9819,499.31232Q283.2832,500.17566,280.4507,501.8379Q280.24023,501.96484,280.2764,502.23492Q280.39963,502.52173,280.62238,502.52173Q280.70364,502.52173,280.79822,502.48352Q286.685,498.93835,291.33517,497.3897Q296.7537,495.49567,308.05026,493.372L307.93356,492.66278L307.9307,492.648 Z M310.8954,496.7094Q309.2686,496.7094,307.785,496.94806Q306.54944,497.14563,305.644,497.36475Q305.21774,497.73212,305.71146,498.04254Q305.75336,498.05652,305.80908,498.05652Q305.8347,498.05652,305.86325,498.05353Q307.33124,497.74603,308.22125,497.62567Q309.03943,497.51373,309.77338,497.47388Q310.3195,497.44324,310.88983,497.44324Q312.15994,497.44324,313.55035,497.5952Q316.9776,497.91205,326.8129,500.17944Q336.2776,500.87823,339.91898,501.73926Q343.14258,502.4301,345.28845,503.742Q346.299,504.34644,347.27643,505.18964Q348.25525,506.0227,349.80557,507.73584Q349.88943,507.8133,350.01855,507.828Q350.55942,507.75122,350.34247,507.24078Q348.626,505.3382,347.5811,504.48553Q345.48212,502.71094,342.8078,501.7815L342.7671,501.76727Q338.9226,500.29175,326.929,499.45392Q316.93582,497.14703,313.42868,496.84497Q312.1214,496.7094,310.8954,496.7094 Z M307.99374,503.53668Q306.81985,503.53668,305.95172,503.54364Q302.00668,503.5711,299.2451,503.7155Q293.79547,503.99225,290.5785,504.7879Q286.9642,505.6759,284.43686,507.5669Q282.79578,508.76202,281.2529,510.9073L281.8141,511.34973L281.83154,511.35815L282.88345,510.02478Q283.24078,509.60486,283.6282,509.22443Q284.50922,508.36078,285.56702,507.67108Q287.75925,506.23602,290.7657,505.49725Q293.87195,504.73444,299.02386,504.46143Q302.2771,504.2682,308.51328,504.2682Q310.6975,504.2682,313.2476,504.29187Q313.81622,504.08295,313.4194,503.61823L313.417,503.6167Q313.33646,503.56287,313.2215,503.55933Q310.11057,503.53668,307.99374,503.53668 Z M321.61136,503.78406L321.26855,504.38947L321.46518,504.5028Q327.8379,505.83734,331.688,506.78595Q335.18848,507.64154,337.7313,508.41516Q343.57065,510.12433,348.61267,513.4345Q348.69046,513.46094,348.7605,513.46094Q348.92383,513.46094,349.0454,513.31726Q349.19925,513.08563,349.0352,512.8611L349.0318,512.85706Q343.95203,509.46942,337.93292,507.70966Q332.48004,506.0428,321.61136,503.78406 Z M336.09683,515.76776Q335.89175,515.76776,335.76398,515.998Q335.67477,516.31635,335.94858,516.4662L350.4468,522.4703L350.72742,521.7978L350.72928,521.7932L336.2276,515.78876Q336.1587,515.76776,336.09683,515.76776 Z M302.83585,512.0611Q299.09637,512.0611,296.47342,512.75214Q292.89594,513.68256,289.9176,516.10187Q287.06238,518.3629,283.43878,523.2668Q283.48343,523.68823,283.75888,523.68823Q283.87894,523.68823,284.04294,523.6081Q288.1555,518.2151,290.9808,516.2059Q293.6414,514.2331,296.64957,513.4642Q299.18442,512.7952,302.87027,512.7952Q303.41702,512.7952,303.98907,512.80994Q309.5342,512.9285,318.61526,514.77405L318.76105,514.07153L318.7641,514.05566Q309.1888,512.0611,302.83585,512.0611 Z M298.1968,531.8281Q297.71973,531.8281,297.28683,531.8682Q294.91653,532.0827,292.70605,533.495Q291.60507,534.17694,290.0655,535.634L290.5535,536.17224L291.62744,535.21594Q291.9696,534.9222,292.32843,534.65125Q293.11316,534.06085,293.9062,533.6437Q295.58533,532.7595,297.33905,532.6Q297.74774,532.5606,298.20288,532.5606Q299.7631,532.5606,301.8689,533.02356Q304.05527,533.47595,309.06363,535.17804Q309.076,535.1786,309.08792,535.1786Q309.3594,535.1786,309.4557,534.9364Q309.5292,534.6634,309.30942,534.50635L309.30377,534.50275Q304.51755,532.83655,302.02615,532.3077Q299.84662,531.8281,298.1968,531.8281 Z M288.29312,543.2388Q282.0847,548.0199,278.89188,548.9773Q277.84787,549.2981,276.8479,549.2981Q276.27396,549.2981,275.7145,549.1924Q274.99222,549.05945,274.19885,548.7371Q273.87042,548.6045,273.48196,548.4189L272.07785,547.72125Q272.05487,547.719,272.03287,547.719Q271.83554,547.719,271.71487,547.9011Q271.606,548.1038,271.73584,548.3017Q273.90082,549.60675,275.56488,549.9106Q276.20346,550.03107,276.8531,550.03107Q277.9687,550.03107,279.1167,549.6756Q281.64374,548.8979,285.67038,546.07776Q286.65768,545.3928,288.72427,543.83234L288.29614,543.24286L288.29312,543.2388 Z M341.63242,538.51764Q339.60147,538.51764,337.25473,539.29816Q335.23145,540.0149,333.33624,541.48804Q332.4539,542.1676,331.35925,543.14966Q331.1581,543.517,331.5109,543.7137Q331.57574,543.7418,331.64322,543.7418Q331.7523,543.7418,331.86826,543.66846Q333.96808,541.80475,335.26285,541.05237Q336.51944,540.29065,337.9403,539.8417Q339.93185,539.2501,341.64252,539.2501Q343.0825,539.2501,344.32343,539.6694Q346.31802,540.35034,347.32855,542.3525Q348.6759,544.84094,349.15762,550.2642L349.16837,550.28107L349.88632,550.20123Q349.44357,545.1072,348.21008,542.48706Q347.06235,539.89233,344.72995,539.0354L344.70908,539.02747Q343.27383,538.51764,341.63242,538.51764 Z M310.88165,551.0921Q301.44586,554.65247,297.1163,555.2138Q296.12415,555.34674,295.21826,555.34674Q294.07837,555.34674,293.07504,555.1362Q292.22546,554.961,291.36035,554.61084Q290.97623,554.45483,290.60107,554.2747L289.13144,553.5443Q288.66885,553.57996,288.74847,554.03235Q288.78885,554.154,288.9184,554.23126Q290.03653,554.83685,290.6686,555.11365Q291.72678,555.5866,292.75235,555.8168Q293.926,556.08057,295.23575,556.08057Q296.19748,556.08057,297.23254,555.9383Q300.92865,555.4376,307.67258,553.04236Q308.75668,552.65985,311.13364,551.778L310.8829,551.0956L310.88165,551.0921 Z M239.46579,564.8929L238.74469,565.0282L241.75174,583.0749Q241.83694,583.3669,242.12387,583.3669Q242.14957,583.3669,242.17691,583.36456Q242.49329,583.275,242.47498,582.9546L239.46753,564.90326L239.46579,564.8929 Z M336.61423,585.41846L335.90677,585.6056L335.92783,585.6919L336.99332,589.71344Q337.10614,589.95276,337.32852,589.95276Q337.39664,589.95276,337.47504,589.93024Q337.7373,589.80054,337.6986,589.51965L336.61478,585.42053L336.61423,585.41846 Z M315.14453,568.52234Q309.13663,568.52234,304.0644,573.2282Q298.33353,578.18774,286.4654,598.2895Q286.52817,598.7083,286.77457,598.7083Q286.91928,598.7083,287.1273,598.5637Q299.01642,578.5439,304.52594,573.80023Q307.37482,571.16003,310.49966,570.0479Q312.61377,569.2725,315.067,569.2725Q316.59244,569.2725,318.24896,569.5723L318.36713,568.88873L318.37213,568.84845Q316.72592,568.52234,315.14453,568.52234 Z M276.38193,585.2743Q276.13794,585.2743,276.039,585.5584Q275.0756,590.357,274.6925,592.9504Q273.9135,598.04816,274.00272,602.2464Q274.1343,609.5802,277.2781,620.80524L277.9804,620.6131Q274.85196,609.371,274.73633,602.2457Q274.67328,599.3655,275.03162,596.01984Q275.39185,592.4304,276.75735,585.7067Q276.80298,585.4628,276.56778,585.30975L276.5593,585.3054Q276.46265,585.2743,276.38193,585.2743 Z"/> </g> <g style="fill:rgb(255,0,0); fill-opacity:0.043137256; stroke-linejoin: miter"> <path d="M232.60754,541.6151Q230.44159,541.66956,229.00217,544.37134Q227.58301,547.21466,227.83441,550.9578Q228.23483,556.56006,234.29578,564.6236L234.86703,564.20624L234.85873,564.18115Q230.23346,557.9466,229.02377,553.46094Q227.94357,549.45514,229.18655,545.7968Q230.55411,542.2048,232.92746,542.35156Q234.17801,542.4367,235.92938,543.5444Q237.29636,544.3847,240.28171,546.8809Q240.78503,547.0075,240.81223,546.5121Q240.80103,546.386,240.69696,546.283L238.51825,544.4973Q237.10751,543.38556,236.03323,542.7489Q234.1069,541.59283,232.62839,541.61456"/> </g> <g style="fill:rgb(255,0,0); fill-opacity:0.043137256; stroke-linejoin: miter"> <path d="M230.74036,536.7327Q223.49243,541.21106,222.83932,547.8158Q222.49466,551.2194,223.64032,556.3624Q224.60272,560.8298,227.49573,569.4659Q227.64127,569.68024,227.93112,569.60474Q228.21616,569.45844,228.15488,569.17804Q224.8793,559.3049,224.05597,554.7575Q223.28311,550.68036,223.5672,547.9087Q223.8472,545.0504,225.46164,542.5704Q227.202,539.857,231.15036,537.33704L230.74841,536.7444"/> </g> <g style="fill:rgb(255,0,0); fill-opacity:0.09019608; stroke-linejoin: miter"> <path d="M337.93637,581.18304L333.30154,583.93713Q331.5398,584.92914,330.075,585.6109Q326.89023,587.091,324.91196,587.25665Q324.54315,587.29047,324.1864,587.29047Q322.13242,587.29047,320.47916,586.17004Q318.71472,585.0668,316.27887,581.54626L307.08804,584.0271L323.1849,592.77765Q332.4631,585.632,334.64044,583.90906Q337.925,581.32996,337.9452,581.19147L337.93637,581.18304 Z"/> </g> <g style="fill:rgb(176,172,165); fill-opacity:1.0; stroke-linejoin: miter"> <path d="M306.87576,587.27325Q299.87256,587.29407,296.02155,590.527Q291.89258,594.05524,289.50903,601.91205L344.47888,609.98486Q347.1078,602.8516,346.07892,599.13824Q345.2235,595.36017,340.0242,592.1485Q334.7126,589.0492,330.38684,589.05707Q326.93567,589.0355,323.37558,592.6701Q316.73395,587.3758,306.95575,587.2734"/> </g> <g> <g style="fill:rgb(255,255,255); fill-opacity:1.0; stroke-linejoin: miter"> <path d="M300.0938,536.0458Q297.69443,536.0839,295.9895,537.74335Q294.32196,539.4756,294.2916,541.8287Q294.32886,544.225,295.96735,545.92065Q297.66394,547.5897,300.06104,547.64056Q302.46075,547.6121,304.17307,545.9583Q305.84796,544.2311,305.88638,541.878Q305.86578,539.4903,304.20898,537.7639Q302.5116,536.0955,300.1144,536.0458"/> </g> <g style="fill:rgb(0,0,0); fill-opacity:1.0; stroke-linejoin: miter"> <path d="M300.36896,537.9663Q298.7771,537.8716,297.55573,538.8945Q296.34903,539.96356,296.213,541.55133Q296.11954,543.1615,297.13733,544.3703Q298.20328,545.579,299.79898,545.7168Q301.39075,545.81476,302.6143,544.7941Q303.82327,543.727,303.96213,542.1395Q304.05847,540.5294,303.0432,539.3191Q301.97974,538.1086,300.3845,537.9675"/> </g> </g> <g style="fill:rgb(255,0,0); fill-opacity:0.019607844; stroke-linejoin: miter"> <path d="M319.04184,475.3598L320.2462,479.49896L322.66284,495.66565Q325.09824,513.0038,326.03436,524.85065Q326.6451,532.29834,326.69766,539.5525Q326.74878,544.23676,325.85196,561.1574Q325.82947,564.4481,326.2993,566.7666Q326.95453,570.05255,329.21667,573.2645Q330.21918,574.7146,336.41275,581.25354Q337.71634,582.8555,338.83575,584.7919Q340.8884,588.1569,343.7458,596.7682Q350.6002,579.18945,351.50797,568.79504Q351.78952,565.46576,351.91034,562.84344Q352.4332,548.01074,353.20572,533.3054Q353.42523,528.0184,353.4457,523.1413Q353.5143,510.6679,351.76663,502.03333Q349.52856,490.7484,342.41562,484.95062Q335.8413,479.23865,319.16708,475.38947"/> </g> <g style="fill:rgb(176,172,165); fill-opacity:1.0; stroke-linejoin: miter"> <path d="M350.5444,532.09784Q348.89233,530.2416,345.8603,528.7905Q342.7725,527.34375,339.6074,526.9291Q337.06485,526.6081,334.7135,527.2585Q332.8129,527.7539,329.79166,529.5229L352.63623,540.8149Q353.3555,535.3456,350.57645,532.1343"/> </g> <g> <g style="fill:rgb(255,255,255); fill-opacity:1.0; stroke-linejoin: miter"> <path d="M340.4566,542.7616Q338.05716,542.79974,336.35223,544.45917Q334.6847,546.1914,334.65433,548.54456Q334.69162,550.9408,336.33008,552.63654Q338.02664,554.3056,340.42377,554.3564Q342.8235,554.32806,344.5358,552.67413Q346.2107,550.94696,346.2491,548.5939Q346.2285,546.20624,344.5717,544.4798Q342.87433,542.81134,340.4772,542.76166"/> </g> <g style="fill:rgb(0,0,0); fill-opacity:1.0; stroke-linejoin: miter"> <path d="M340.73166,544.68225Q339.13983,544.5874,337.91843,545.6105Q336.7118,546.6794,336.57574,548.26715Q336.48227,549.8774,337.50006,551.0861Q338.566,552.29486,340.1617,552.4326Q341.75345,552.5307,342.977,551.5101Q344.186,550.443,344.32483,548.85535Q344.42117,547.2453,343.4059,546.0349Q342.34244,544.8244,340.74722,544.68335"/> </g> </g> <g style="fill:rgb(255,0,0); fill-opacity:0.03529412; stroke-linejoin: miter"> <path d="M306.81198,639.3119Q295.8336,640.1579,284.9121,636.1268Q272.33563,631.6223,245.36801,616.5732L290.55173,652.43976L306.79977,639.3234"/> </g> <g style="fill:rgb(0,0,0); fill-opacity:0.03137255; stroke-linejoin: miter"> <path d="M296.58237,450.98428L296.58237,450.98428Q270.28418,451.59293,242.72772,465.9995Q220.63565,478.224,208.17053,500.78308Q190.22629,536.2402,191.88806,572.3818Q193.71707,597.6306,216.24603,597.6306Q216.48178,597.6306,216.71979,597.62787Q216.84317,597.6288,216.9678,597.6288Q217.73795,597.6288,218.55786,597.5939L218.55984,597.5939Q223.25333,595.192,226.1192,591.92395Q228.14337,589.2274,227.00793,585.3679Q226.53506,583.8494,225.59311,582.10785L220.17337,573.08154Q218.69882,570.46625,217.7109,568.0075Q215.6684,563.1732,215.44739,556.6806Q215.69513,538.37213,224.39325,531.56085Q225.98499,530.57983,227.6821,530.57983Q230.48785,530.57983,233.5817,533.2612Q235.6824,535.0309,237.88599,537.6042Q238.66434,538.2796,247.84674,550.35864Q249.8487,552.80396,251.19263,553.6888Q251.87357,554.19,252.40717,554.19Q253.8099,554.19,254.19434,550.7269Q258.2251,472.677,296.58514,450.98428L296.58237,450.98428 Z"/> </g> <g style="fill:rgb(0,0,0); fill-opacity:0.050980393; stroke-linejoin: miter"> <path d="M229.61325,731.8288Q229.87003,733.5596,230.12164,735.318L230.12393,735.318Q233.80429,736.2617,237.54895,737.04694L238.02115,735.9647L229.61554,731.8288 Z"/> </g> <g style="fill:rgb(0,0,0); fill-opacity:0.050980393; stroke-linejoin: miter"> <path d="M192.05618,628.34546Q174.0635,647.091,168.5361,662.60266Q156.08862,693.2359,163.34265,699.219L229.61307,731.8275L229.61307,731.8275Q217.0174,646.92084,192.05789,628.34546 Z"/> </g> </g> </g> </svg>