<svg width="387" height="387" viewBox="0 0 387 387" fill="none" xmlns="http://www.w3.org/2000/svg">
<path d="M211.701 0.897208C105.47 -9.29559 11.0895 68.5589 0.897402 174.79C-9.29469 281.021 68.5591 375.401 174.791 385.593C281.021 395.786 375.401 317.931 385.594 211.7C395.786 105.469 317.931 11.0896 211.701 0.897208Z" fill="#EEBD2C"/>
<path d="M153.732 215.34C188.724 193.345 231.714 220.338 266.707 207.341C325.143 184.616 343.512 127.734 340.999 68.7385C309.57 31.4359 264.091 5.92368 211.7 0.897208C105.47 -9.29559 11.0894 68.5589 0.896655 174.79C-6.30611 249.864 30.4705 319.012 90.154 356.717C89.1165 301.86 104.796 245.809 153.732 215.34Z" fill="#F0C73D"/>
<path d="M164.729 177.348C186.724 176.348 191.723 151.353 206.72 138.356C208.719 135.357 213.718 134.357 217.717 133.357C240.712 130.358 265.706 144.355 283.703 131.357C314.922 109.503 319.624 71.2719 307.795 37.6065C280.598 17.5442 247.79 4.35889 211.7 0.896294C105.47 -9.29615 11.0895 68.5584 0.896668 174.789C0.562178 178.276 0.323258 181.749 0.176392 185.207C10.7901 181.093 22.7727 179.345 33.7578 177.348C77.7481 170.349 120.739 180.347 164.729 177.348Z" fill="#F2D15B"/>
<path d="M210.053 18.0589C113.301 8.77577 27.3424 79.6837 18.0593 176.436C8.7765 273.189 79.684 359.147 176.437 368.43C273.189 377.713 359.147 306.806 368.431 210.053C377.714 113.301 306.806 27.342 210.053 18.0589Z" fill="#E5A528"/>
<path d="M18.0593 176.436C12.3199 236.257 37.2443 291.943 79.9707 327.94C88.0926 279.553 112.396 231.963 163.729 222.338C206.72 215.339 254.709 244.333 288.702 207.341C304.698 191.345 309.697 170.349 304.698 147.354C299.699 124.359 294.7 102.364 300.699 81.3691C302.766 73.9857 305.778 67.2618 309.557 61.1676C282.708 37.4842 248.416 21.74 210.053 18.0592C113.301 8.77572 27.3424 79.6836 18.0593 176.436Z" fill="#EAAB2B"/>
<path d="M18.2891 174.321C62.0871 171.516 103.919 191.333 147.733 188.345C158.73 187.345 170.728 182.347 176.726 172.349C182.725 164.351 184.725 152.353 194.722 149.354C219.717 140.356 251.71 151.353 271.706 127.359C292.57 102.865 287.096 72.6102 286.649 44.0616C264.202 29.9786 238.228 20.7622 210.054 18.0589C114.009 8.84355 28.615 78.6549 18.2891 174.321Z" fill="#EBB132"/>
<path d="M146.922 225.118C113.487 250.637 93.4632 272.676 86.8495 291.236C82.6506 301.57 80.5098 313.971 80.4272 328.439H80.4289C112.164 355.182 149.21 368.836 191.567 369.401C221.772 369.079 249.279 362.126 274.091 348.541H274.094C272.512 336.221 270.007 322.805 266.579 308.293C261.528 288.092 254.457 272.592 245.365 261.792C236.735 251.382 225.433 243.615 211.46 238.491C198.917 233.521 177.482 229.074 147.157 225.151L146.922 225.118Z" fill="#494444"/>
<path d="M216.455 80C216.18 80 215.905 80.0015 215.629 80.0046L215.336 80.0054C197.62 80.2946 179.475 85.2947 160.9 95.0056C146.2 103.14 134.703 114.712 126.409 129.723C114.469 153.317 109.051 177.138 110.157 201.186C111.374 217.987 119.478 226.387 134.469 226.387C134.626 226.387 134.783 226.386 134.942 226.385C135.024 226.385 135.106 226.385 135.189 226.385C139.21 226.385 144.251 225.671 150.312 224.243L265.887 214.306C283.479 200.514 294.074 190.187 297.671 183.324C300.144 179.023 300.648 174.944 299.182 171.087C298.688 169.604 297.747 167.837 296.357 165.784C288.108 155.99 283.964 150.413 283.925 149.053C283.168 147.325 282.62 145.37 282.281 143.188C281.603 131.58 280.732 124.563 279.668 122.136C278.284 117.377 275.52 112.376 271.375 107.132C255.887 89.0442 237.58 80 216.455 80Z" fill="#B0ACA5"/>
<path d="M227.111 105.481C204.497 106.125 189.956 112.111 183.49 123.44C180.752 128.627 179.624 134.987 180.107 142.52C180.354 149.537 182.769 161.054 187.352 177.072C187.611 178.721 187.4 179.733 186.718 180.107C185.755 181.206 181.086 181.271 172.709 180.302L171.054 189.685C161.723 170.044 154.697 160.534 149.976 161.157C144.316 161.614 140.614 167.087 138.871 177.576C137.903 188.25 140.709 201.665 147.289 217.819L146.75 226.244L154.186 238.261L207.998 278.179C213.713 274.781 219.375 271.254 224.985 267.597C234.24 267.833 240.136 265.998 242.675 262.091C244.431 259.897 246.26 255.909 248.163 250.125C250.721 248.925 254.591 242.382 259.773 230.497C264.758 218.582 267.792 208.721 268.873 200.915L269.031 183.765C271.33 163.162 272.289 151.187 271.907 147.841C271.802 139.034 270.482 131.746 267.949 125.975C262.517 112.908 248.993 106.077 227.377 105.483" fill="#FFE296"/>
<path d="M227.52 150.104C225.961 149.586 224.065 149.412 221.831 149.582C219.583 149.773 217.476 150.274 215.511 151.085C213.972 151.73 212.65 152.603 211.544 153.703C210.566 154.633 209.482 156.146 208.292 158.243L233.685 156.595C232.259 153.186 230.215 151.026 227.554 150.116" fill="#B0ACA5"/>
<path d="M225.98 121.604C218.457 123.014 212.84 124.366 209.128 125.661C207.085 126.367 205.067 127.232 203.075 128.255C201.944 128.83 200.437 129.67 198.552 130.776C198.412 130.861 198.354 130.993 198.378 131.172C198.46 131.363 198.575 131.459 198.723 131.459C198.777 131.459 198.836 131.446 198.899 131.42C202.816 129.062 206.322 127.367 209.416 126.336C213.021 125.076 218.583 123.739 226.099 122.326L225.983 121.618L225.98 121.604ZM228.939 125.657C227.857 125.657 226.822 125.737 225.835 125.896C225.012 126.027 224.3 126.166 223.698 126.311C223.414 126.556 223.436 126.781 223.765 126.988C223.793 126.997 223.825 127.002 223.862 127.002C223.879 127.002 223.897 127.001 223.916 126.999C224.893 126.794 225.678 126.652 226.27 126.572C226.814 126.497 227.331 126.447 227.819 126.42C228.183 126.4 228.554 126.39 228.934 126.39C229.779 126.39 230.664 126.44 231.589 126.541C233.87 126.752 238.282 127.612 244.826 129.121C251.124 129.586 255.485 130.105 257.908 130.678C260.053 131.137 261.839 131.804 263.267 132.677C263.939 133.079 264.601 133.56 265.251 134.121C265.903 134.676 266.744 135.523 267.776 136.663C267.831 136.714 267.902 136.745 267.988 136.755C268.348 136.704 268.456 136.508 268.311 136.169C267.169 134.903 266.251 133.986 265.555 133.419C264.159 132.238 262.571 131.338 260.791 130.72L260.75 130.706C258.192 129.724 252.923 128.954 244.942 128.397C238.293 126.862 233.801 125.994 231.468 125.793C230.598 125.702 229.755 125.657 228.939 125.657ZM226.043 132.472C225.262 132.472 224.582 132.474 224.005 132.479C221.38 132.497 219.148 132.554 217.311 132.65C213.685 132.834 210.801 133.191 208.661 133.721C206.256 134.311 204.212 135.236 202.531 136.494C201.439 137.289 200.379 138.401 199.353 139.828L199.913 140.27L199.93 140.278L200.98 138.947C201.218 138.668 201.466 138.402 201.724 138.149C202.31 137.574 202.955 137.057 203.659 136.598C205.117 135.643 206.847 134.92 208.848 134.429C210.914 133.921 213.662 133.576 217.09 133.395C219.255 133.266 222.412 133.202 226.561 133.202C228.015 133.202 229.59 133.21 231.287 133.225C231.665 133.086 231.722 132.862 231.458 132.553L231.456 132.552C231.402 132.516 231.337 132.497 231.261 132.494C229.191 132.479 227.451 132.472 226.043 132.472ZM239.635 132.719L239.293 133.323L239.489 133.436C243.729 134.324 247.13 135.084 249.692 135.715C252.022 136.284 254.032 136.826 255.724 137.341C259.61 138.478 263.23 140.148 266.585 142.351C266.637 142.368 266.686 142.377 266.732 142.377C266.841 142.377 266.936 142.329 267.017 142.234C267.119 142.08 267.116 141.928 267.007 141.778L267.003 141.774C263.623 139.52 259.931 137.808 255.925 136.637C252.297 135.528 246.867 134.222 239.635 132.719ZM254.093 144.68C253.956 144.68 253.846 144.756 253.761 144.909C253.701 145.121 253.763 145.277 253.945 145.377L268.416 151.369L268.696 150.698L268.698 150.694L254.223 144.701C254.177 144.687 254.134 144.68 254.093 144.68ZM220.895 140.98C218.407 140.98 216.29 141.21 214.544 141.67C212.164 142.289 209.983 143.403 208.001 145.013C206.101 146.518 203.946 148.901 201.534 152.164C201.564 152.445 201.671 152.585 201.854 152.585C201.934 152.585 202.028 152.558 202.137 152.505C204.874 148.917 207.182 146.454 209.062 145.117C210.833 143.804 212.719 142.892 214.72 142.38C216.407 141.935 218.477 141.713 220.929 141.713C221.293 141.713 221.665 141.718 222.046 141.727C225.736 141.806 230.602 142.46 236.644 143.688L236.79 142.987L236.793 142.971C230.421 141.644 225.122 140.98 220.895 140.98ZM216.265 160.71C215.947 160.71 215.644 160.723 215.356 160.75C213.779 160.892 212.255 161.433 210.784 162.373C210.052 162.827 209.173 163.539 208.149 164.508L208.636 165.045L209.708 164.091C209.935 163.895 210.169 163.708 210.407 163.527C210.929 163.134 211.454 162.799 211.982 162.522C213.099 161.933 214.241 161.586 215.408 161.48C215.68 161.454 215.968 161.441 216.271 161.441C217.309 161.441 218.528 161.595 219.93 161.903C221.385 162.204 223.778 162.921 227.111 164.053C227.119 164.053 227.127 164.054 227.135 164.054C227.316 164.054 227.438 163.973 227.502 163.812C227.551 163.63 227.502 163.487 227.356 163.383L227.35 163.379C224.166 162.27 221.744 161.54 220.087 161.188C218.636 160.869 217.362 160.71 216.265 160.71ZM206.38 172.099C202.249 175.28 199.121 177.189 196.996 177.826C196.302 178.04 195.621 178.146 194.956 178.146C194.574 178.146 194.197 178.111 193.825 178.041C193.344 177.952 192.84 177.801 192.312 177.586C192.094 177.498 191.855 177.392 191.597 177.269L190.195 176.573C190.18 176.571 190.165 176.57 190.15 176.57C190.019 176.57 189.913 176.631 189.833 176.752C189.76 176.887 189.767 177.02 189.854 177.152C191.294 178.02 192.568 178.556 193.675 178.758C194.1 178.838 194.529 178.878 194.961 178.878C195.704 178.878 196.457 178.76 197.221 178.523C198.902 178.006 201.083 176.809 203.762 174.932C204.419 174.476 205.435 173.729 206.81 172.691L206.383 172.103L206.38 172.099ZM259.618 167.386C258.266 167.386 256.81 167.646 255.248 168.165C253.902 168.642 252.599 169.371 251.337 170.351C250.75 170.803 250.093 171.356 249.364 172.01C249.23 172.254 249.281 172.442 249.516 172.573C249.559 172.591 249.603 172.601 249.648 172.601C249.72 172.601 249.795 172.576 249.872 172.527C251.269 171.287 252.399 170.417 253.26 169.916C254.097 169.409 254.987 169.007 255.933 168.708C257.258 168.314 258.49 168.117 259.628 168.117C260.586 168.117 261.478 168.257 262.304 168.536C263.631 168.989 264.631 169.882 265.303 171.214C266.2 172.87 266.808 175.502 267.129 179.111L267.14 179.128L267.856 179.048C267.562 175.658 267.004 173.092 266.183 171.348C265.419 169.622 264.262 168.473 262.71 167.903L262.689 167.895C261.734 167.556 260.71 167.386 259.618 167.386ZM228.925 179.937C222.647 182.306 218.067 183.677 215.186 184.051C214.526 184.139 213.894 184.184 213.292 184.184C212.533 184.184 211.82 184.114 211.152 183.973C210.587 183.857 210.017 183.682 209.441 183.449C209.185 183.345 208.933 183.233 208.683 183.114L207.216 182.385C206.909 182.408 206.781 182.571 206.834 182.872C206.861 182.953 206.918 183.019 207.004 183.07C207.748 183.473 208.33 183.767 208.751 183.951C209.455 184.266 210.148 184.5 210.83 184.653C211.611 184.828 212.438 184.916 213.309 184.916C213.949 184.916 214.613 184.869 215.302 184.774C217.762 184.441 221.235 183.477 225.722 181.884C226.444 181.629 227.595 181.208 229.177 180.622L228.927 179.94L228.925 179.937ZM157.645 193.712L156.925 193.847L159.926 211.859C159.983 212.054 160.107 212.151 160.298 212.151C160.315 212.151 160.333 212.15 160.351 212.148C160.561 212.089 160.66 211.952 160.648 211.739L157.647 193.722L157.645 193.712ZM254.609 214.198L253.903 214.385L253.924 214.471L254.988 218.485C255.063 218.644 255.174 218.724 255.322 218.724C255.367 218.724 255.416 218.717 255.468 218.702C255.643 218.615 255.717 218.479 255.692 218.292L254.61 214.2L254.609 214.198ZM233.18 197.334C229.182 197.334 225.496 198.9 222.121 202.031C218.308 205.331 212.452 213.669 204.555 227.045C204.597 227.324 204.7 227.463 204.864 227.463C204.96 227.463 205.078 227.415 205.216 227.319C213.127 213.997 218.916 205.759 222.582 202.602C224.477 200.845 226.465 199.597 228.544 198.857C229.951 198.341 231.47 198.083 233.103 198.083C234.118 198.083 235.176 198.183 236.279 198.382L236.397 197.7L236.402 197.66C235.306 197.443 234.232 197.334 233.18 197.334ZM194.491 214.054C194.329 214.054 194.215 214.149 194.149 214.338C193.508 217.531 193.06 219.99 192.805 221.716C192.286 225.108 192.057 228.201 192.116 230.994C192.204 235.874 193.294 242.049 195.385 249.518L196.086 249.326C194.005 241.846 192.925 235.735 192.849 230.994C192.807 229.077 192.905 227.006 193.143 224.78C193.383 222.391 193.957 218.96 194.866 214.486C194.896 214.324 194.833 214.192 194.676 214.09L194.668 214.086C194.604 214.065 194.545 214.054 194.491 214.054Z" fill="#FF0000" fill-opacity="0.0431373"/>
<path d="M150.8 170.478C149.358 170.514 148.159 171.431 147.201 173.229C146.257 175.121 145.868 177.312 146.035 179.803C146.302 183.531 148.452 188.077 152.485 193.443L153.055 193.026L153.046 193.001C149.969 188.853 148.027 185.286 147.223 182.301C146.504 179.636 146.558 177.086 147.385 174.652C148.295 172.262 149.54 171.115 151.119 171.213C151.951 171.27 152.95 171.666 154.115 172.404C155.025 172.963 156.473 174.073 158.459 175.734C158.794 175.818 158.971 175.695 158.989 175.366C158.981 175.282 158.943 175.206 158.874 175.137L156.699 173.355C155.76 172.615 154.934 172.033 154.219 171.61C152.937 170.84 151.804 170.463 150.82 170.477" fill="#FF0000" fill-opacity="0.0431373"/>
<path d="M148.936 165.605C144.113 168.585 141.484 172.272 141.05 176.667C140.82 178.932 141.087 181.775 141.849 185.197C142.49 188.17 143.772 192.529 145.697 198.276C145.794 198.419 145.939 198.465 146.132 198.414C146.322 198.317 146.396 198.175 146.355 197.989C144.176 191.419 142.812 186.621 142.264 183.595C141.75 180.882 141.587 178.604 141.776 176.76C141.963 174.858 142.593 173.082 143.667 171.431C144.825 169.626 146.718 167.885 149.345 166.208L148.944 165.616" fill="#FF0000" fill-opacity="0.0431373"/>
<path d="M255.929 209.971L251.303 212.72C250.13 213.38 249.057 213.937 248.082 214.39C245.963 215.375 244.245 215.923 242.929 216.033C242.684 216.056 242.442 216.067 242.205 216.067C240.838 216.067 239.605 215.694 238.505 214.948C237.331 214.214 235.933 212.676 234.312 210.333L225.139 212.81L241.205 221.544C247.379 216.789 251.19 213.838 252.639 212.692C254.825 210.976 255.924 210.072 255.937 209.979L255.929 209.971Z" fill="#FF0000" fill-opacity="0.0901961"/>
<path d="M224.927 216.05C220.267 216.063 216.656 217.146 214.093 219.297C211.346 221.645 209.179 225.433 207.593 230.661L262.459 238.718C264.208 233.972 264.741 230.363 264.056 227.892C263.487 225.378 261.472 223.053 258.013 220.916C254.478 218.853 251.272 217.825 248.394 217.83C246.097 217.816 243.764 219.018 241.396 221.436C236.976 217.913 231.513 216.118 225.007 216.05" fill="#B0ACA5"/>
<path d="M218.158 164.919C216.561 164.944 215.196 165.509 214.061 166.613C212.952 167.766 212.387 169.125 212.367 170.691C212.392 172.286 212.949 173.647 214.039 174.775C215.168 175.886 216.53 176.458 218.125 176.492C219.722 176.473 221.09 175.913 222.23 174.813C223.344 173.664 223.914 172.306 223.94 170.74C223.926 169.152 223.368 167.783 222.265 166.634C221.136 165.524 219.774 164.952 218.179 164.919" fill="white"/>
<path d="M218.433 166.836C217.373 166.773 216.437 167.082 215.625 167.762C214.822 168.474 214.375 169.358 214.285 170.414C214.222 171.486 214.53 172.424 215.207 173.228C215.916 174.032 216.802 174.48 217.864 174.572C218.923 174.637 219.86 174.33 220.674 173.651C221.478 172.941 221.927 172.058 222.019 171.001C222.083 169.93 221.777 168.992 221.102 168.186C220.394 167.381 219.51 166.931 218.448 166.837" fill="black"/>
<path d="M268.513 160.979C267.414 159.744 265.855 158.643 263.838 157.678C261.783 156.715 259.703 156.096 257.597 155.82C255.905 155.606 254.277 155.716 252.712 156.148C251.447 156.478 249.81 157.232 247.799 158.409L270.601 169.679C271.079 166.04 270.394 163.152 268.545 161.015" fill="#B0ACA5"/>
<path d="M258.444 171.622C256.848 171.648 255.482 172.212 254.348 173.317C253.238 174.469 252.673 175.828 252.653 177.394C252.678 178.989 253.235 180.35 254.326 181.478C255.454 182.589 256.816 183.161 258.411 183.195C260.008 183.176 261.376 182.617 262.516 181.516C263.63 180.367 264.2 179.009 264.226 177.443C264.212 175.855 263.654 174.486 262.552 173.337C261.422 172.227 260.06 171.655 258.465 171.622" fill="white"/>
<path d="M258.719 173.539C257.66 173.476 256.724 173.785 255.911 174.466C255.108 175.177 254.661 176.061 254.571 177.117C254.509 178.189 254.816 179.127 255.493 179.931C256.203 180.735 257.088 181.183 258.15 181.275C259.209 181.34 260.146 181.033 260.96 180.354C261.764 179.644 262.213 178.761 262.305 177.705C262.369 176.633 262.064 175.695 261.388 174.889C260.68 174.084 259.796 173.634 258.734 173.54" fill="black"/>
<path d="M224.863 267.99C217.558 268.553 210.272 267.493 203.005 264.811C194.637 261.813 181.48 255.308 163.536 245.294L208.634 281.093L224.851 268.001" fill="#FF0000" fill-opacity="0.0352941"/>
<path d="M147.811 360.331C147.982 361.483 148.151 362.644 148.318 363.814H148.321C150.77 364.442 153.24 365.017 155.732 365.54L156.203 364.459L147.813 360.331H147.811Z" fill="black" fill-opacity="0.0509804"/>
<path d="M110.325 257.044C98.3526 269.517 90.5274 280.915 86.8495 291.236C78.5669 311.62 76.839 323.802 81.6658 327.783L147.811 360.33C139.429 303.833 126.935 269.404 110.327 257.044H110.325Z" fill="black" fill-opacity="0.0509804"/>
</svg>
